<svg width="81" height="34" viewBox="0 0 81 34" fill="none" xmlns="http://www.w3.org/2000/svg">
<path d="M25 33H24V34H25V33ZM80 33V34H81V33H80ZM25 1V0H24V1H25ZM80 1H81V0H80V1ZM25 34H80V32H25V34ZM24 1V33H26V1H24ZM80 0H25V2H80V0ZM81 33V1H79V33H81Z" fill="#D1EAD3"/>
<path fill-rule="evenodd" clip-rule="evenodd" d="M1 33H41V25.7742H1V33Z" stroke="#D1EAD3" stroke-width="2"/>
<path fill-rule="evenodd" clip-rule="evenodd" d="M1 33H41V25.7742H1V33Z" fill="#66BB6A" stroke="#D1EAD3" stroke-width="2"/>
<path fill-rule="evenodd" clip-rule="evenodd" d="M9 24.7419H48V17.5161H9V24.7419Z" stroke="#D1EAD3" stroke-width="2"/>
<path fill-rule="evenodd" clip-rule="evenodd" d="M9 24.7419H48V17.5161H9V24.7419Z" fill="#66BB6A" stroke="#D1EAD3" stroke-width="2"/>
<path fill-rule="evenodd" clip-rule="evenodd" d="M17 16.4839H57V9.25806H17V16.4839Z" stroke="#D1EAD3" stroke-width="2"/>
<path fill-rule="evenodd" clip-rule="evenodd" d="M17 16.4839H57V9.25806H17V16.4839Z" fill="#66BB6A" stroke="#D1EAD3" stroke-width="2"/>
<path fill-rule="evenodd" clip-rule="evenodd" d="M25 8.22581H64V1H25V8.22581Z" stroke="#D1EAD3" stroke-width="2"/>
<path fill-rule="evenodd" clip-rule="evenodd" d="M25 8.22581H64V1H25V8.22581Z" fill="#66BB6A" stroke="#D1EAD3" stroke-width="2"/>
</svg>
